<svg width="150" height="40" viewBox="0 0 1044 297" fill="none" xmlns="http://www.w3.org/2000/svg">
<path d="M2.93165 297C2.14404 297 1.45853 296.705 0.87512 296.116C0.291707 295.527 0 294.834 0 294.039C0 293.125 0.262536 292.403 0.787608 291.873C1.31268 291.343 2.02736 291.077 2.93165 291.077C3.69009 291.077 4.36101 291.372 4.94443 291.961C5.55701 292.551 5.8633 293.243 5.8633 294.039C5.8633 294.923 5.58618 295.645 5.03194 296.204C4.4777 296.735 3.7776 297 2.93165 297Z" fill="white"/>
<path d="M34.1563 297C32.0269 297 30.087 296.72 28.3368 296.16C26.5866 295.571 25.1134 294.805 23.9174 293.862L26.0177 290.326C27.0679 291.21 28.2493 291.932 29.562 292.492C30.8746 293.052 32.4061 293.331 34.1563 293.331C36.2566 293.331 37.9194 292.89 39.1445 292.006C40.3697 291.122 40.9823 289.928 40.9823 288.425C40.9823 287.571 40.8073 286.82 40.4572 286.171C40.1072 285.494 39.4216 284.845 38.4007 284.227C37.4089 283.578 35.9358 282.886 33.9813 282.149C31.881 281.324 30.2037 280.499 28.9494 279.674C27.695 278.82 26.7907 277.862 26.2365 276.801C25.7114 275.711 25.4489 274.429 25.4489 272.956C25.4489 271.483 25.8427 270.157 26.6303 268.978C27.4471 267.77 28.6285 266.812 30.1745 266.105C31.7498 265.368 33.6459 265 35.8628 265C37.6714 265 39.2904 265.192 40.7197 265.575C42.1783 265.928 43.5931 266.444 44.9641 267.122L43.4326 270.702C42.4408 270.112 41.274 269.626 39.9321 269.243C38.6195 268.831 37.2338 268.624 35.7753 268.624C33.8501 268.624 32.3332 269.007 31.2247 269.773C30.1162 270.54 29.562 271.527 29.562 272.735C29.562 273.501 29.7224 274.179 30.0433 274.768C30.3642 275.357 30.9913 275.932 31.9248 276.492C32.8874 277.052 34.3168 277.685 36.2129 278.392C38.4882 279.247 40.2822 280.145 41.5949 281.088C42.9367 282.031 43.8848 283.063 44.439 284.182C44.9932 285.273 45.2704 286.525 45.2704 287.939C45.2704 289.855 44.789 291.49 43.8264 292.845C42.893 294.201 41.5803 295.232 39.8884 295.939C38.2257 296.646 36.315 297 34.1563 297Z" fill="white"/>
<path d="M62.0884 297C58.5587 297 55.7875 295.939 53.7748 293.818C51.762 291.696 50.7556 288.661 50.7556 284.713V265.53H54.9124V284.05C54.9124 286.996 55.5104 289.28 56.7064 290.901C57.9024 292.521 59.6964 293.331 62.0884 293.331C64.5679 293.331 66.4202 292.551 67.6454 290.989C68.8706 289.398 69.4832 287.085 69.4832 284.05V265.53H73.5087V284.536C73.5087 287.129 73.0274 289.368 72.0648 291.254C71.1313 293.11 69.804 294.54 68.083 295.541C66.3911 296.514 64.3929 297 62.0884 297Z" fill="white"/>
<path d="M88.3386 297C86.2091 297 84.2693 296.72 82.519 296.16C80.7688 295.571 79.2957 294.805 78.0997 293.862L80.2 290.326C81.2501 291.21 82.4315 291.932 83.7442 292.492C85.0569 293.052 86.5883 293.331 88.3386 293.331C90.4389 293.331 92.1016 292.89 93.3268 292.006C94.5519 291.122 95.1645 289.928 95.1645 288.425C95.1645 287.571 94.9895 286.82 94.6394 286.171C94.2894 285.494 93.6039 284.845 92.5829 284.227C91.5911 283.578 90.118 282.886 88.1636 282.149C86.0633 281.324 84.3859 280.499 83.1316 279.674C81.8773 278.82 80.973 277.862 80.4187 276.801C79.8937 275.711 79.6311 274.429 79.6311 272.956C79.6311 271.483 80.0249 270.157 80.8125 268.978C81.6293 267.77 82.8107 266.812 84.3568 266.105C85.932 265.368 87.8281 265 90.0451 265C91.8536 265 93.4726 265.192 94.902 265.575C96.3605 265.928 97.7753 266.444 99.1463 267.122L97.6148 270.702C96.623 270.112 95.4562 269.626 94.1144 269.243C92.8017 268.831 91.4161 268.624 89.9575 268.624C88.0323 268.624 86.5154 269.007 85.4069 269.773C84.2984 270.54 83.7442 271.527 83.7442 272.735C83.7442 273.501 83.9046 274.179 84.2255 274.768C84.5464 275.357 85.1736 275.932 86.107 276.492C87.0696 277.052 88.499 277.685 90.3951 278.392C92.6704 279.247 94.4644 280.145 95.7771 281.088C97.1189 282.031 98.067 283.063 98.6212 284.182C99.1755 285.273 99.4526 286.525 99.4526 287.939C99.4526 289.855 98.9713 291.49 98.0087 292.845C97.0752 294.201 95.7625 295.232 94.0706 295.939C92.4079 296.646 90.4972 297 88.3386 297Z" fill="white"/>
<path d="M111.501 296.47V269.243H102.094V265.53H125.066V269.243H115.658V296.47H111.501Z" fill="white"/>
<path d="M147.878 296.912L144.465 288.072H130.288L126.875 296.823L123.331 295.365L135.32 265.53H139.87L151.685 295.365L147.878 296.912ZM131.601 284.536H143.108L137.376 269.685L131.601 284.536Z" fill="white"/>
<path d="M156.059 296.47V265.53H160.216V296.47H156.059Z" fill="white"/>
<path d="M168.109 296.47V265.53H173.622L187.143 291.254V265.53H191.081V296.47H185.655L172.047 270.923V296.47H168.109Z" fill="white"/>
<path d="M220.007 296.912L216.594 288.072H202.417L199.004 296.823L195.46 295.365L207.449 265.53H212L223.814 295.365L220.007 296.912ZM203.73 284.536H215.237L209.505 269.685L203.73 284.536Z" fill="white"/>
<path d="M237.027 296.823C235.247 296.823 233.555 296.779 231.951 296.691C230.376 296.602 229.121 296.499 228.188 296.381V265.619C229.209 265.501 230.478 265.398 231.995 265.309C233.512 265.221 235.247 265.177 237.202 265.177C240.935 265.177 243.809 265.899 245.822 267.343C247.834 268.757 248.841 270.687 248.841 273.133C248.841 274.753 248.403 276.138 247.528 277.287C246.682 278.407 245.442 279.335 243.809 280.072C245.792 280.779 247.295 281.766 248.316 283.033C249.337 284.271 249.847 285.803 249.847 287.63C249.847 290.429 248.753 292.669 246.565 294.348C244.378 295.998 241.198 296.823 237.027 296.823ZM232.345 278.878H237.158C239.462 278.878 241.285 278.392 242.627 277.42C243.998 276.448 244.684 275.195 244.684 273.663C244.684 272.013 244.013 270.761 242.671 269.906C241.329 269.022 239.491 268.58 237.158 268.58C236.195 268.58 235.32 268.61 234.532 268.669C233.745 268.698 233.016 268.742 232.345 268.801V278.878ZM237.333 293.331C239.929 293.331 241.956 292.86 243.415 291.917C244.873 290.974 245.603 289.604 245.603 287.807C245.603 286.039 244.888 284.654 243.459 283.652C242.029 282.65 239.987 282.149 237.333 282.149H232.345V293.066C233.891 293.243 235.553 293.331 237.333 293.331Z" fill="white"/>
<path d="M255.749 296.47V265.53H259.906V292.713H273.952V296.47H255.749Z" fill="white"/>
<path d="M278.097 296.47V265.53H296.475V269.155H282.254V278.569H294.506V282.105H282.254V292.845H296.475V296.47H278.097Z" fill="white"/>
<path d="M323.1 297C320.97 297 319.03 296.72 317.28 296.16C315.53 295.571 314.057 294.805 312.861 293.862L314.961 290.326C316.011 291.21 317.193 291.932 318.505 292.492C319.818 293.052 321.349 293.331 323.1 293.331C325.2 293.331 326.863 292.89 328.088 292.006C329.313 291.122 329.926 289.928 329.926 288.425C329.926 287.571 329.751 286.82 329.401 286.171C329.051 285.494 328.365 284.845 327.344 284.227C326.352 283.578 324.879 282.886 322.925 282.149C320.824 281.324 319.147 280.499 317.893 279.674C316.638 278.82 315.734 277.862 315.18 276.801C314.655 275.711 314.392 274.429 314.392 272.956C314.392 271.483 314.786 270.157 315.574 268.978C316.39 267.77 317.572 266.812 319.118 266.105C320.693 265.368 322.589 265 324.806 265C326.615 265 328.234 265.192 329.663 265.575C331.122 265.928 332.536 266.444 333.907 267.122L332.376 270.702C331.384 270.112 330.217 269.626 328.876 269.243C327.563 268.831 326.177 268.624 324.719 268.624C322.793 268.624 321.277 269.007 320.168 269.773C319.06 270.54 318.505 271.527 318.505 272.735C318.505 273.501 318.666 274.179 318.987 274.768C319.308 275.357 319.935 275.932 320.868 276.492C321.831 277.052 323.26 277.685 325.156 278.392C327.432 279.247 329.226 280.145 330.538 281.088C331.88 282.031 332.828 283.063 333.382 284.182C333.937 285.273 334.214 286.525 334.214 287.939C334.214 289.855 333.732 291.49 332.77 292.845C331.836 294.201 330.524 295.232 328.832 295.939C327.169 296.646 325.258 297 323.1 297Z" fill="white"/>
<path d="M346.262 296.47V269.243H336.855V265.53H359.827V269.243H350.419V296.47H346.262Z" fill="white"/>
<path d="M371.331 296.47V284.713L360.698 267.254L364.199 265.133L373.563 280.823L382.751 265.309L386.033 267.254L375.488 284.713V296.47H371.331Z" fill="white"/>
<path d="M390.393 296.47V265.53H394.55V292.713H408.595V296.47H390.393Z" fill="white"/>
<path d="M412.741 296.47V265.53H431.118V269.155H416.898V278.569H429.149V282.105H416.898V292.845H431.118V296.47H412.741Z" fill="white"/>
<path d="M450.13 296.47V265.53H468.289V269.155H454.287V278.613H465.97V282.061H454.287V296.47H450.13Z" fill="white"/>
<path d="M484.483 297C482.208 297 480.181 296.587 478.401 295.762C476.622 294.908 475.105 293.759 473.851 292.315C472.626 290.842 471.678 289.133 471.007 287.188C470.365 285.243 470.044 283.166 470.044 280.956C470.044 277.921 470.613 275.21 471.75 272.823C472.917 270.407 474.58 268.506 476.739 267.122C478.897 265.707 481.479 265 484.483 265C486.73 265 488.742 265.413 490.522 266.238C492.33 267.063 493.862 268.212 495.116 269.685C496.371 271.158 497.319 272.853 497.96 274.768C498.631 276.683 498.967 278.746 498.967 280.956C498.967 283.166 498.631 285.243 497.96 287.188C497.319 289.133 496.371 290.842 495.116 292.315C493.862 293.759 492.345 294.908 490.566 295.762C488.786 296.587 486.759 297 484.483 297ZM484.483 293.376C486.73 293.376 488.611 292.831 490.128 291.74C491.645 290.65 492.783 289.177 493.541 287.32C494.329 285.435 494.722 283.313 494.722 280.956C494.722 279.365 494.489 277.832 494.022 276.359C493.556 274.886 492.885 273.575 492.01 272.425C491.134 271.247 490.055 270.319 488.772 269.641C487.517 268.963 486.088 268.624 484.483 268.624C482.354 268.624 480.516 269.169 478.97 270.26C477.453 271.35 476.287 272.823 475.47 274.68C474.682 276.536 474.288 278.628 474.288 280.956C474.288 282.547 474.507 284.094 474.945 285.597C475.411 287.07 476.082 288.396 476.957 289.575C477.833 290.753 478.897 291.681 480.152 292.359C481.435 293.037 482.879 293.376 484.483 293.376Z" fill="white"/>
<path d="M522.934 297L519.127 288.602C518.164 286.51 516.954 285.022 515.495 284.138C514.037 283.254 512.17 282.812 509.894 282.812H509.238V296.47H505.081V265.619C506.627 265.471 508.1 265.368 509.501 265.309C510.93 265.221 512.447 265.177 514.051 265.177C517.785 265.177 520.585 265.943 522.452 267.475C524.349 269.007 525.297 270.982 525.297 273.398C525.297 275.549 524.655 277.287 523.371 278.613C522.117 279.91 520.294 280.882 517.902 281.53C518.689 281.884 519.389 282.311 520.002 282.812C520.615 283.284 521.198 283.932 521.752 284.757C522.336 285.552 522.919 286.599 523.503 287.895L526.828 295.144L522.934 297ZM509.238 279.276H514.051C516.152 279.276 517.858 278.805 519.171 277.862C520.483 276.919 521.14 275.564 521.14 273.796C521.14 272.322 520.527 271.114 519.302 270.171C518.077 269.199 516.327 268.713 514.051 268.713C513.059 268.713 512.17 268.727 511.382 268.757C510.595 268.786 509.88 268.831 509.238 268.89V279.276Z" fill="white"/>
<path d="M566.252 296.912L562.839 288.072H548.662L545.249 296.823L541.705 295.365L553.694 265.53H558.244L570.059 295.365L566.252 296.912ZM549.975 284.536H561.482L555.75 269.685L549.975 284.536Z" fill="white"/>
<path d="M598.009 297C595.646 297 593.546 296.381 591.708 295.144C589.87 293.906 588.426 292.153 587.376 289.884C586.326 287.586 585.801 284.89 585.801 281.796C585.801 278.495 586.355 275.593 587.464 273.088C588.572 270.554 590.162 268.58 592.233 267.166C594.333 265.722 596.857 265 599.803 265C601.699 265 603.391 265.236 604.878 265.707C606.366 266.179 607.766 266.783 609.079 267.519L607.548 271.011C606.322 270.333 605.068 269.773 603.785 269.331C602.53 268.89 601.13 268.669 599.584 268.669C597.746 268.669 596.113 269.169 594.683 270.171C593.254 271.144 592.116 272.587 591.27 274.503C590.454 276.418 590.045 278.761 590.045 281.53C590.045 284.006 590.424 286.127 591.183 287.895C591.941 289.634 592.991 290.974 594.333 291.917C595.675 292.86 597.221 293.331 598.971 293.331C600.605 293.331 602.049 292.993 603.303 292.315C604.587 291.608 605.593 290.886 606.322 290.149V283.387H599.978V280.072H610.26V296.47H606.585V293.376C605.564 294.289 604.324 295.129 602.866 295.895C601.407 296.632 599.788 297 598.009 297Z" fill="white"/>
<path d="M634.888 297L631.081 288.602C630.118 286.51 628.908 285.022 627.449 284.138C625.991 283.254 624.124 282.812 621.848 282.812H621.192V296.47H617.035V265.619C618.581 265.471 620.054 265.368 621.454 265.309C622.884 265.221 624.401 265.177 626.005 265.177C629.739 265.177 632.539 265.943 634.406 267.475C636.302 269.007 637.25 270.982 637.25 273.398C637.25 275.549 636.609 277.287 635.325 278.613C634.071 279.91 632.248 280.882 629.856 281.53C630.643 281.884 631.343 282.311 631.956 282.812C632.568 283.284 633.152 283.932 633.706 284.757C634.29 285.552 634.873 286.599 635.456 287.895L638.782 295.144L634.888 297ZM621.192 279.276H626.005C628.105 279.276 629.812 278.805 631.125 277.862C632.437 276.919 633.094 275.564 633.094 273.796C633.094 272.322 632.481 271.114 631.256 270.171C630.031 269.199 628.28 268.713 626.005 268.713C625.013 268.713 624.124 268.727 623.336 268.757C622.548 268.786 621.834 268.831 621.192 268.89V279.276Z" fill="white"/>
<path d="M644.041 296.47V265.53H662.418V269.155H648.198V278.569H660.449V282.105H648.198V292.845H662.418V296.47H644.041Z" fill="white"/>
<path d="M668.312 296.47V265.53H686.689V269.155H672.469V278.569H684.72V282.105H672.469V292.845H686.689V296.47H668.312Z" fill="white"/>
<path d="M692.583 296.47V265.53H698.096L711.616 291.254V265.53H715.554V296.47H710.129L696.521 270.923V296.47H692.583Z" fill="white"/>
<path d="M723.434 296.47V265.53H741.812V269.155H727.591V278.569H739.842V282.105H727.591V292.845H741.812V296.47H723.434Z" fill="white"/>
<path d="M765.557 297L761.751 288.602C760.788 286.51 759.577 285.022 758.119 284.138C756.66 283.254 754.793 282.812 752.518 282.812H751.862V296.47H747.705V265.619C749.251 265.471 750.724 265.368 752.124 265.309C753.554 265.221 755.07 265.177 756.675 265.177C760.409 265.177 763.209 265.943 765.076 267.475C766.972 269.007 767.92 270.982 767.92 273.398C767.92 275.549 767.278 277.287 765.995 278.613C764.741 279.91 762.917 280.882 760.525 281.53C761.313 281.884 762.013 282.311 762.626 282.812C763.238 283.284 763.822 283.932 764.376 284.757C764.959 285.552 765.543 286.599 766.126 287.895L769.452 295.144L765.557 297ZM751.862 279.276H756.675C758.775 279.276 760.482 278.805 761.794 277.862C763.107 276.919 763.763 275.564 763.763 273.796C763.763 272.322 763.151 271.114 761.926 270.171C760.7 269.199 758.95 268.713 756.675 268.713C755.683 268.713 754.793 268.727 754.006 268.757C753.218 268.786 752.503 268.831 751.862 268.89V279.276Z" fill="white"/>
<path d="M792.861 296.47L784.547 266.547L788.66 265.221L795.574 292.006L802.093 268.757H807.3L813.776 292.006L820.646 265.354L824.496 266.547L816.226 296.47H811.063L804.587 273.221L798.024 296.47H792.861Z" fill="white"/>
<path d="M848.187 296.912L844.774 288.072H830.598L827.185 296.823L823.64 295.365L835.629 265.53H840.18L851.994 295.365L848.187 296.912ZM831.91 284.536H843.418L837.686 269.685L831.91 284.536Z" fill="white"/>
<path d="M874.221 297L870.414 288.602C869.451 286.51 868.241 285.022 866.782 284.138C865.324 283.254 863.457 282.812 861.182 282.812H860.525V296.47H856.368V265.619C857.914 265.471 859.388 265.368 860.788 265.309C862.217 265.221 863.734 265.177 865.338 265.177C869.072 265.177 871.873 265.943 873.74 267.475C875.636 269.007 876.584 270.982 876.584 273.398C876.584 275.549 875.942 277.287 874.658 278.613C873.404 279.91 871.581 280.882 869.189 281.53C869.977 281.884 870.677 282.311 871.289 282.812C871.902 283.284 872.485 283.932 873.039 284.757C873.623 285.552 874.206 286.599 874.79 287.895L878.115 295.144L874.221 297ZM860.525 279.276H865.338C867.439 279.276 869.145 278.805 870.458 277.862C871.771 276.919 872.427 275.564 872.427 273.796C872.427 272.322 871.814 271.114 870.589 270.171C869.364 269.199 867.614 268.713 865.338 268.713C864.347 268.713 863.457 268.727 862.669 268.757C861.882 268.786 861.167 268.831 860.525 268.89V279.276Z" fill="white"/>
<path d="M891.425 296.823C889.762 296.823 888.304 296.779 887.05 296.691C885.824 296.602 884.599 296.499 883.374 296.381V265.619C884.745 265.471 886.087 265.368 887.4 265.309C888.712 265.221 890.215 265.177 891.907 265.177C894.532 265.177 896.793 265.589 898.689 266.414C900.614 267.239 902.189 268.374 903.414 269.818C904.669 271.262 905.588 272.941 906.171 274.856C906.784 276.742 907.09 278.775 907.09 280.956C907.09 283.107 906.784 285.14 906.171 287.055C905.558 288.971 904.61 290.665 903.327 292.138C902.073 293.582 900.454 294.731 898.47 295.586C896.516 296.411 894.167 296.823 891.425 296.823ZM891.556 293.155C894.182 293.155 896.326 292.639 897.989 291.608C899.651 290.576 900.876 289.147 901.664 287.32C902.452 285.464 902.846 283.343 902.846 280.956C902.846 278.834 902.452 276.845 901.664 274.989C900.876 273.133 899.666 271.645 898.032 270.525C896.399 269.376 894.313 268.801 891.775 268.801C890.929 268.801 890.156 268.831 889.456 268.89C888.756 268.919 888.114 268.963 887.531 269.022V292.934C888.144 293.022 888.785 293.081 889.456 293.11C890.127 293.14 890.827 293.155 891.556 293.155Z" fill="white"/>
<path d="M931.052 297L927.246 288.602C926.283 286.51 925.072 285.022 923.614 284.138C922.155 283.254 920.288 282.812 918.013 282.812H917.357V296.47H913.2V265.619C914.746 265.471 916.219 265.368 917.619 265.309C919.049 265.221 920.566 265.177 922.17 265.177C925.904 265.177 928.704 265.943 930.571 267.475C932.467 269.007 933.415 270.982 933.415 273.398C933.415 275.549 932.773 277.287 931.49 278.613C930.236 279.91 928.412 280.882 926.02 281.53C926.808 281.884 927.508 282.311 928.121 282.812C928.733 283.284 929.317 283.932 929.871 284.757C930.454 285.552 931.038 286.599 931.621 287.895L934.947 295.144L931.052 297ZM917.357 279.276H922.17C924.27 279.276 925.977 278.805 927.289 277.862C928.602 276.919 929.258 275.564 929.258 273.796C929.258 272.322 928.646 271.114 927.421 270.171C926.195 269.199 924.445 268.713 922.17 268.713C921.178 268.713 920.288 268.727 919.501 268.757C918.713 268.786 917.999 268.831 917.357 268.89V279.276Z" fill="white"/>
<path d="M952.895 297C950.62 297 948.592 296.587 946.813 295.762C945.033 294.908 943.516 293.759 942.262 292.315C941.037 290.842 940.089 289.133 939.418 287.188C938.776 285.243 938.455 283.166 938.455 280.956C938.455 277.921 939.024 275.21 940.162 272.823C941.329 270.407 942.991 268.506 945.15 267.122C947.309 265.707 949.89 265 952.895 265C955.141 265 957.154 265.413 958.933 266.238C960.742 267.063 962.273 268.212 963.528 269.685C964.782 271.158 965.73 272.853 966.372 274.768C967.043 276.683 967.378 278.746 967.378 280.956C967.378 283.166 967.043 285.243 966.372 287.188C965.73 289.133 964.782 290.842 963.528 292.315C962.273 293.759 960.756 294.908 958.977 295.762C957.198 296.587 955.17 297 952.895 297ZM952.895 293.376C955.141 293.376 957.022 292.831 958.539 291.74C960.056 290.65 961.194 289.177 961.952 287.32C962.74 285.435 963.134 283.313 963.134 280.956C963.134 279.365 962.9 277.832 962.434 276.359C961.967 274.886 961.296 273.575 960.421 272.425C959.546 271.247 958.466 270.319 957.183 269.641C955.929 268.963 954.499 268.624 952.895 268.624C950.765 268.624 948.928 269.169 947.382 270.26C945.865 271.35 944.698 272.823 943.881 274.68C943.093 276.536 942.7 278.628 942.7 280.956C942.7 282.547 942.918 284.094 943.356 285.597C943.823 287.07 944.494 288.396 945.369 289.575C946.244 290.753 947.309 291.681 948.563 292.359C949.846 293.037 951.29 293.376 952.895 293.376Z" fill="white"/>
<path d="M982.331 296.823C980.552 296.823 978.86 296.779 977.256 296.691C975.68 296.602 974.426 296.499 973.493 296.381V265.619C974.514 265.501 975.783 265.398 977.299 265.309C978.816 265.221 980.552 265.177 982.506 265.177C986.24 265.177 989.114 265.899 991.126 267.343C993.139 268.757 994.145 270.687 994.145 273.133C994.145 274.753 993.708 276.138 992.833 277.287C991.987 278.407 990.747 279.335 989.114 280.072C991.097 280.779 992.599 281.766 993.62 283.033C994.641 284.271 995.152 285.803 995.152 287.63C995.152 290.429 994.058 292.669 991.87 294.348C989.682 295.998 986.503 296.823 982.331 296.823ZM977.649 278.878H982.463C984.767 278.878 986.59 278.392 987.932 277.42C989.303 276.448 989.989 275.195 989.989 273.663C989.989 272.013 989.318 270.761 987.976 269.906C986.634 269.022 984.796 268.58 982.463 268.58C981.5 268.58 980.625 268.61 979.837 268.669C979.05 268.698 978.32 268.742 977.649 268.801V278.878ZM982.638 293.331C985.234 293.331 987.261 292.86 988.72 291.917C990.178 290.974 990.908 289.604 990.908 287.807C990.908 286.039 990.193 284.654 988.764 283.652C987.334 282.65 985.292 282.149 982.638 282.149H977.649V293.066C979.196 293.243 980.858 293.331 982.638 293.331Z" fill="white"/>
<path d="M1001.05 296.47V265.53H1019.43V269.155H1005.21V278.569H1017.46V282.105H1005.21V292.845H1019.43V296.47H1001.05Z" fill="white"/>
<path d="M1041.07 297C1040.28 297 1039.6 296.705 1039.01 296.116C1038.43 295.527 1038.14 294.834 1038.14 294.039C1038.14 293.125 1038.4 292.403 1038.92 291.873C1039.45 291.343 1040.16 291.077 1041.07 291.077C1041.83 291.077 1042.5 291.372 1043.08 291.961C1043.69 292.551 1044 293.243 1044 294.039C1044 294.923 1043.72 295.645 1043.17 296.204C1042.61 296.735 1041.91 297 1041.07 297Z" fill="white"/>
<path d="M106 246L65 222L210.5 138V184.5L106 246Z" fill="#FF6B00" fill-opacity="0.77"/>
<path d="M145.5 23L106 0L0 60.5V182L19.5 196L210.5 84.5V60.5L191.5 50L115.5 94L39.5 138V84.5L145.5 23Z" fill="white"/>
<path d="M260 30.5L233 57V188.5L260 214H320L346 188.5V152.5H312V181.5H266.5V63.5H312V91.5H346V57L320 30.5H260Z" fill="white"/>
<path d="M537 30.5H497V214H531.5V139L551.5 214H581L600 139V214H634V30.5H595.5L566.5 120.5L537 30.5Z" fill="white"/>
<path d="M1043.5 30.5H939V65H974V214H1008V65H1043.5V30.5Z" fill="white"/>
<path fill-rule="evenodd" clip-rule="evenodd" d="M367 57L392.5 30.5H454L479 57V188.5L454 214H392.5L367 188.5V57ZM444.5 63.5H399.5V179H444.5V63.5Z" fill="white"/>
<path fill-rule="evenodd" clip-rule="evenodd" d="M808 214V30.5H896L921 57V111L910 120.5L921 132V214H885V144H840V214H808ZM885 65H842V108H885V65Z" fill="white"/>
<path fill-rule="evenodd" clip-rule="evenodd" d="M697 181.5H739.5L750 214H784L735.5 30.5H702L654 214H689.5L697 181.5ZM718.5 100L706 147.5H731.5L718.5 100Z" fill="white"/>
</svg>
